<mxfile host="app.diagrams.net" modified="2024-04-30T14:33:35.056Z" agent="Mozilla/5.0 (Windows NT 10.0; Win64; x64) AppleWebKit/537.36 (KHTML, like Gecko) Chrome/124.0.0.0 Safari/537.36" etag="TXeUV3EWehgxspbJPUfp" version="24.2.7" type="device">
  <diagram name="Seite-1" id="EFXf_4_ugb7hTWQoCyjJ">
    <mxGraphModel dx="988" dy="543" grid="1" gridSize="10" guides="1" tooltips="1" connect="1" arrows="1" fold="1" page="1" pageScale="1" pageWidth="827" pageHeight="1169" math="0" shadow="0">
      <root>
        <mxCell id="0" />
        <mxCell id="1" parent="0" />
        <mxCell id="zqppbUZPJkrLQTMX3qO1-1" value="" style="ellipse;html=1;shape=startState;labelBackgroundColor=none;" vertex="1" parent="1">
          <mxGeometry x="250" width="30" height="30" as="geometry" />
        </mxCell>
        <mxCell id="zqppbUZPJkrLQTMX3qO1-2" value="" style="edgeStyle=orthogonalEdgeStyle;html=1;verticalAlign=bottom;endArrow=open;endSize=8;rounded=0;labelBackgroundColor=none;fontColor=default;" edge="1" source="zqppbUZPJkrLQTMX3qO1-1" parent="1">
          <mxGeometry relative="1" as="geometry">
            <mxPoint x="265" y="90" as="targetPoint" />
          </mxGeometry>
        </mxCell>
        <mxCell id="zqppbUZPJkrLQTMX3qO1-4" value="" style="endArrow=none;html=1;rounded=0;" edge="1" parent="1">
          <mxGeometry width="50" height="50" relative="1" as="geometry">
            <mxPoint x="200" y="90" as="sourcePoint" />
            <mxPoint x="330" y="90" as="targetPoint" />
          </mxGeometry>
        </mxCell>
        <mxCell id="zqppbUZPJkrLQTMX3qO1-5" value="PO teilt Kaffee aus" style="rounded=1;whiteSpace=wrap;html=1;arcSize=40;" vertex="1" parent="1">
          <mxGeometry x="180" y="120" width="70" height="40" as="geometry" />
        </mxCell>
        <mxCell id="zqppbUZPJkrLQTMX3qO1-6" value="" style="edgeStyle=orthogonalEdgeStyle;html=1;verticalAlign=bottom;endArrow=open;endSize=8;rounded=0;" edge="1" source="zqppbUZPJkrLQTMX3qO1-5" parent="1">
          <mxGeometry relative="1" as="geometry">
            <mxPoint x="220" y="200" as="targetPoint" />
          </mxGeometry>
        </mxCell>
        <mxCell id="zqppbUZPJkrLQTMX3qO1-7" value="PO teilt Tee aus" style="rounded=1;whiteSpace=wrap;html=1;arcSize=40;" vertex="1" parent="1">
          <mxGeometry x="270" y="120" width="70" height="40" as="geometry" />
        </mxCell>
        <mxCell id="zqppbUZPJkrLQTMX3qO1-8" value="" style="edgeStyle=orthogonalEdgeStyle;html=1;verticalAlign=bottom;endArrow=open;endSize=8;rounded=0;" edge="1" parent="1" source="zqppbUZPJkrLQTMX3qO1-7">
          <mxGeometry relative="1" as="geometry">
            <mxPoint x="300" y="200" as="targetPoint" />
          </mxGeometry>
        </mxCell>
        <mxCell id="zqppbUZPJkrLQTMX3qO1-9" value="" style="endArrow=open;endFill=1;endSize=12;html=1;rounded=0;entryX=0.429;entryY=-0.003;entryDx=0;entryDy=0;entryPerimeter=0;" edge="1" parent="1" target="zqppbUZPJkrLQTMX3qO1-7">
          <mxGeometry width="160" relative="1" as="geometry">
            <mxPoint x="300" y="90" as="sourcePoint" />
            <mxPoint x="420" y="140" as="targetPoint" />
          </mxGeometry>
        </mxCell>
        <mxCell id="zqppbUZPJkrLQTMX3qO1-10" value="" style="endArrow=open;endFill=1;endSize=12;html=1;rounded=0;entryX=0.569;entryY=0.011;entryDx=0;entryDy=0;entryPerimeter=0;" edge="1" parent="1" target="zqppbUZPJkrLQTMX3qO1-5">
          <mxGeometry width="160" relative="1" as="geometry">
            <mxPoint x="220" y="90" as="sourcePoint" />
            <mxPoint x="310" y="130" as="targetPoint" />
          </mxGeometry>
        </mxCell>
        <mxCell id="zqppbUZPJkrLQTMX3qO1-11" value="" style="endArrow=none;html=1;rounded=0;" edge="1" parent="1">
          <mxGeometry width="50" height="50" relative="1" as="geometry">
            <mxPoint x="210" y="200" as="sourcePoint" />
            <mxPoint x="310" y="200" as="targetPoint" />
          </mxGeometry>
        </mxCell>
        <mxCell id="zqppbUZPJkrLQTMX3qO1-14" value="" style="endArrow=open;endFill=1;endSize=12;html=1;rounded=0;entryX=0.5;entryY=0;entryDx=0;entryDy=0;" edge="1" parent="1" target="zqppbUZPJkrLQTMX3qO1-15">
          <mxGeometry width="160" relative="1" as="geometry">
            <mxPoint x="260" y="200" as="sourcePoint" />
            <mxPoint x="360" y="230" as="targetPoint" />
          </mxGeometry>
        </mxCell>
        <mxCell id="zqppbUZPJkrLQTMX3qO1-15" value="PO stellt Ziel des Sprints vor" style="rounded=1;whiteSpace=wrap;html=1;arcSize=40;" vertex="1" parent="1">
          <mxGeometry x="200" y="230" width="120" height="40" as="geometry" />
        </mxCell>
        <mxCell id="zqppbUZPJkrLQTMX3qO1-16" value="" style="edgeStyle=orthogonalEdgeStyle;html=1;verticalAlign=bottom;endArrow=open;endSize=8;rounded=0;entryX=0.5;entryY=0;entryDx=0;entryDy=0;exitX=0.5;exitY=1;exitDx=0;exitDy=0;" edge="1" parent="1" source="zqppbUZPJkrLQTMX3qO1-15" target="zqppbUZPJkrLQTMX3qO1-18">
          <mxGeometry relative="1" as="geometry">
            <mxPoint x="259.76" y="330" as="targetPoint" />
            <mxPoint x="259.76" y="270" as="sourcePoint" />
          </mxGeometry>
        </mxCell>
        <mxCell id="zqppbUZPJkrLQTMX3qO1-18" value="PO gibt Überblick über Anforderungen" style="rounded=1;whiteSpace=wrap;html=1;arcSize=40;" vertex="1" parent="1">
          <mxGeometry x="200" y="330" width="120" height="40" as="geometry" />
        </mxCell>
        <mxCell id="zqppbUZPJkrLQTMX3qO1-19" value="" style="edgeStyle=orthogonalEdgeStyle;html=1;verticalAlign=bottom;endArrow=open;endSize=8;rounded=0;entryX=0.494;entryY=-0.03;entryDx=0;entryDy=0;entryPerimeter=0;" edge="1" source="zqppbUZPJkrLQTMX3qO1-18" parent="1" target="zqppbUZPJkrLQTMX3qO1-20">
          <mxGeometry relative="1" as="geometry">
            <mxPoint x="260" y="430" as="targetPoint" />
          </mxGeometry>
        </mxCell>
        <mxCell id="zqppbUZPJkrLQTMX3qO1-20" value="Team diskutiert Rahmenbedingungen und Einflussfaktoren" style="rounded=1;whiteSpace=wrap;html=1;arcSize=40;" vertex="1" parent="1">
          <mxGeometry x="200" y="420" width="120" height="50" as="geometry" />
        </mxCell>
        <mxCell id="zqppbUZPJkrLQTMX3qO1-21" value="" style="edgeStyle=orthogonalEdgeStyle;html=1;verticalAlign=bottom;endArrow=open;endSize=8;rounded=0;entryX=0.5;entryY=0;entryDx=0;entryDy=0;" edge="1" source="zqppbUZPJkrLQTMX3qO1-20" parent="1" target="zqppbUZPJkrLQTMX3qO1-24">
          <mxGeometry relative="1" as="geometry">
            <mxPoint x="260" y="520" as="targetPoint" />
          </mxGeometry>
        </mxCell>
        <mxCell id="zqppbUZPJkrLQTMX3qO1-24" value="Aufwand für die Anforderungen abschätzen" style="rounded=1;whiteSpace=wrap;html=1;arcSize=40;" vertex="1" parent="1">
          <mxGeometry x="100" y="530" width="120" height="40" as="geometry" />
        </mxCell>
        <mxCell id="zqppbUZPJkrLQTMX3qO1-25" value="" style="edgeStyle=orthogonalEdgeStyle;html=1;verticalAlign=bottom;endArrow=open;endSize=8;rounded=0;entryX=0.5;entryY=0;entryDx=0;entryDy=0;" edge="1" source="zqppbUZPJkrLQTMX3qO1-24" parent="1" target="zqppbUZPJkrLQTMX3qO1-27">
          <mxGeometry relative="1" as="geometry">
            <mxPoint x="160" y="630" as="targetPoint" />
          </mxGeometry>
        </mxCell>
        <mxCell id="zqppbUZPJkrLQTMX3qO1-27" value="" style="rhombus;whiteSpace=wrap;html=1;" vertex="1" parent="1">
          <mxGeometry x="135" y="625" width="50" height="50" as="geometry" />
        </mxCell>
        <mxCell id="zqppbUZPJkrLQTMX3qO1-31" value="Selektiertes Product Backlog" style="rounded=1;whiteSpace=wrap;html=1;arcSize=0;" vertex="1" parent="1">
          <mxGeometry x="100" y="800" width="120" height="40" as="geometry" />
        </mxCell>
        <mxCell id="zqppbUZPJkrLQTMX3qO1-32" value="" style="edgeStyle=orthogonalEdgeStyle;html=1;verticalAlign=bottom;endArrow=open;endSize=8;rounded=0;entryX=0.75;entryY=0;entryDx=0;entryDy=0;exitX=1;exitY=0.5;exitDx=0;exitDy=0;" edge="1" source="zqppbUZPJkrLQTMX3qO1-31" parent="1" target="zqppbUZPJkrLQTMX3qO1-43">
          <mxGeometry relative="1" as="geometry">
            <mxPoint x="80" y="920" as="targetPoint" />
            <Array as="points">
              <mxPoint x="390" y="820" />
            </Array>
          </mxGeometry>
        </mxCell>
        <mxCell id="zqppbUZPJkrLQTMX3qO1-33" value="" style="endArrow=open;endFill=1;endSize=12;html=1;rounded=0;entryX=0.5;entryY=0;entryDx=0;entryDy=0;exitX=0.5;exitY=1;exitDx=0;exitDy=0;" edge="1" parent="1" source="zqppbUZPJkrLQTMX3qO1-27" target="zqppbUZPJkrLQTMX3qO1-31">
          <mxGeometry width="160" relative="1" as="geometry">
            <mxPoint x="300" y="740" as="sourcePoint" />
            <mxPoint x="160" y="820" as="targetPoint" />
          </mxGeometry>
        </mxCell>
        <mxCell id="zqppbUZPJkrLQTMX3qO1-34" value="Product Backlog" style="rounded=1;whiteSpace=wrap;html=1;arcSize=0;" vertex="1" parent="1">
          <mxGeometry x="350" y="630" width="120" height="40" as="geometry" />
        </mxCell>
        <mxCell id="zqppbUZPJkrLQTMX3qO1-35" value="" style="edgeStyle=orthogonalEdgeStyle;html=1;verticalAlign=bottom;endArrow=open;endSize=8;rounded=0;entryX=0.5;entryY=0;entryDx=0;entryDy=0;" edge="1" source="zqppbUZPJkrLQTMX3qO1-34" parent="1" target="zqppbUZPJkrLQTMX3qO1-41">
          <mxGeometry relative="1" as="geometry">
            <mxPoint x="340" y="720" as="targetPoint" />
          </mxGeometry>
        </mxCell>
        <mxCell id="zqppbUZPJkrLQTMX3qO1-36" value="" style="endArrow=open;endFill=1;endSize=12;html=1;rounded=0;exitX=1;exitY=0.5;exitDx=0;exitDy=0;entryX=0;entryY=0.5;entryDx=0;entryDy=0;" edge="1" parent="1" source="zqppbUZPJkrLQTMX3qO1-27" target="zqppbUZPJkrLQTMX3qO1-34">
          <mxGeometry width="160" relative="1" as="geometry">
            <mxPoint x="300" y="740" as="sourcePoint" />
            <mxPoint x="460" y="740" as="targetPoint" />
          </mxGeometry>
        </mxCell>
        <mxCell id="zqppbUZPJkrLQTMX3qO1-38" value="Anforderung wird mit neuer Abschätzung zurückgelegt" style="text;html=1;align=center;verticalAlign=middle;whiteSpace=wrap;rounded=0;" vertex="1" parent="1">
          <mxGeometry x="185" y="660" width="145" height="20" as="geometry" />
        </mxCell>
        <mxCell id="zqppbUZPJkrLQTMX3qO1-40" value="Anforderung wird mit Prio versehen und aufgenommen" style="text;html=1;align=center;verticalAlign=middle;whiteSpace=wrap;rounded=0;" vertex="1" parent="1">
          <mxGeometry x="90" y="690" width="60" height="70" as="geometry" />
        </mxCell>
        <mxCell id="zqppbUZPJkrLQTMX3qO1-41" value="Prüfung auf Anpassung der Sprintziele" style="rounded=1;whiteSpace=wrap;html=1;arcSize=40;" vertex="1" parent="1">
          <mxGeometry x="270" y="750" width="120" height="40" as="geometry" />
        </mxCell>
        <mxCell id="zqppbUZPJkrLQTMX3qO1-42" value="" style="edgeStyle=orthogonalEdgeStyle;html=1;verticalAlign=bottom;endArrow=open;endSize=8;rounded=0;entryX=0.25;entryY=0;entryDx=0;entryDy=0;" edge="1" source="zqppbUZPJkrLQTMX3qO1-41" parent="1" target="zqppbUZPJkrLQTMX3qO1-43">
          <mxGeometry relative="1" as="geometry">
            <mxPoint x="340" y="820" as="targetPoint" />
          </mxGeometry>
        </mxCell>
        <mxCell id="zqppbUZPJkrLQTMX3qO1-43" value="Kapazität des Teams auf Basis alter Sprints bestimmen" style="rounded=1;whiteSpace=wrap;html=1;arcSize=40;" vertex="1" parent="1">
          <mxGeometry x="300" y="860" width="120" height="50" as="geometry" />
        </mxCell>
        <mxCell id="zqppbUZPJkrLQTMX3qO1-44" value="" style="edgeStyle=orthogonalEdgeStyle;html=1;verticalAlign=bottom;endArrow=open;endSize=8;rounded=0;entryX=0.5;entryY=0;entryDx=0;entryDy=0;" edge="1" source="zqppbUZPJkrLQTMX3qO1-43" parent="1" target="zqppbUZPJkrLQTMX3qO1-45">
          <mxGeometry relative="1" as="geometry">
            <mxPoint x="580" y="800" as="targetPoint" />
          </mxGeometry>
        </mxCell>
        <mxCell id="zqppbUZPJkrLQTMX3qO1-45" value="Team macht Forecast welche Backlog-Items im Sprint umgesetzt werden können" style="rounded=1;whiteSpace=wrap;html=1;arcSize=40;" vertex="1" parent="1">
          <mxGeometry x="275" y="950" width="170" height="60" as="geometry" />
        </mxCell>
        <mxCell id="zqppbUZPJkrLQTMX3qO1-46" value="" style="edgeStyle=orthogonalEdgeStyle;html=1;verticalAlign=bottom;endArrow=open;endSize=8;rounded=0;entryX=0.5;entryY=0;entryDx=0;entryDy=0;exitX=1;exitY=0.5;exitDx=0;exitDy=0;" edge="1" source="zqppbUZPJkrLQTMX3qO1-45" parent="1" target="zqppbUZPJkrLQTMX3qO1-47">
          <mxGeometry relative="1" as="geometry">
            <mxPoint x="200" y="830" as="targetPoint" />
            <Array as="points">
              <mxPoint x="490" y="980" />
              <mxPoint x="490" y="940" />
              <mxPoint x="590" y="940" />
            </Array>
          </mxGeometry>
        </mxCell>
        <mxCell id="zqppbUZPJkrLQTMX3qO1-47" value="Dokumentation im Tool Confluence" style="rounded=1;whiteSpace=wrap;html=1;arcSize=40;" vertex="1" parent="1">
          <mxGeometry x="530" y="960" width="120" height="40" as="geometry" />
        </mxCell>
        <mxCell id="zqppbUZPJkrLQTMX3qO1-48" value="" style="edgeStyle=orthogonalEdgeStyle;html=1;verticalAlign=bottom;endArrow=open;endSize=8;rounded=0;" edge="1" source="zqppbUZPJkrLQTMX3qO1-47" parent="1" target="zqppbUZPJkrLQTMX3qO1-49">
          <mxGeometry relative="1" as="geometry">
            <mxPoint x="330" y="1030" as="targetPoint" />
          </mxGeometry>
        </mxCell>
        <mxCell id="zqppbUZPJkrLQTMX3qO1-49" value="" style="ellipse;html=1;shape=endState;" vertex="1" parent="1">
          <mxGeometry x="575" y="1040" width="30" height="30" as="geometry" />
        </mxCell>
      </root>
    </mxGraphModel>
  </diagram>
</mxfile>
